<svg width="10" height="17" viewBox="0 0 10 17" fill="none" xmlns="http://www.w3.org/2000/svg">
<path d="M9.12377 1.91528C9.5143 1.52475 9.5143 0.891589 9.12377 0.501064C8.73325 0.11054 8.10008 0.11054 7.70956 0.501064L9.12377 1.91528ZM1.125 8.49984L0.417893 7.79273C0.0273689 8.18326 0.0273689 8.81642 0.417893 9.20694L1.125 8.49984ZM7.70956 16.4986C8.10008 16.8891 8.73325 16.8891 9.12377 16.4986C9.5143 16.1081 9.5143 15.4749 9.12377 15.0844L7.70956 16.4986ZM7.70956 0.501064L0.417893 7.79273L1.83211 9.20694L9.12377 1.91528L7.70956 0.501064ZM0.417893 9.20694L7.70956 16.4986L9.12377 15.0844L1.83211 7.79273L0.417893 9.20694Z" fill="white"/>
</svg>
