<svg width="10" height="17" viewBox="0 0 10 17" fill="none" xmlns="http://www.w3.org/2000/svg">
<path d="M0.876227 15.0847C0.485703 15.4752 0.485703 16.1084 0.876227 16.4989C1.26675 16.8895 1.89992 16.8895 2.29044 16.4989L0.876227 15.0847ZM8.875 8.50016L9.58211 9.20727C9.97263 8.81674 9.97263 8.18358 9.58211 7.79306L8.875 8.50016ZM2.29044 0.501389C1.89992 0.110865 1.26675 0.110865 0.876227 0.501389C0.485703 0.891914 0.485703 1.52508 0.876227 1.9156L2.29044 0.501389ZM2.29044 16.4989L9.58211 9.20727L8.16789 7.79306L0.876227 15.0847L2.29044 16.4989ZM9.58211 7.79306L2.29044 0.501389L0.876227 1.9156L8.16789 9.20727L9.58211 7.79306Z" fill="white"/>
</svg>
