<svg width="28" height="28" viewBox="0 0 28 28" fill="none" xmlns="http://www.w3.org/2000/svg">
<path d="M19.6042 12.7708C19.0519 12.7708 18.6042 13.2185 18.6042 13.7708C18.6042 14.3231 19.0519 14.7708 19.6042 14.7708V12.7708ZM19.6188 14.7708C20.171 14.7708 20.6188 14.3231 20.6188 13.7708C20.6188 13.2185 20.171 12.7708 19.6188 12.7708V14.7708ZM13.7708 12.7708C13.2185 12.7708 12.7708 13.2185 12.7708 13.7708C12.7708 14.3231 13.2185 14.7708 13.7708 14.7708V12.7708ZM13.7854 14.7708C14.3377 14.7708 14.7854 14.3231 14.7854 13.7708C14.7854 13.2185 14.3377 12.7708 13.7854 12.7708V14.7708ZM7.9375 12.7708C7.38522 12.7708 6.9375 13.2185 6.9375 13.7708C6.9375 14.3231 7.38522 14.7708 7.9375 14.7708V12.7708ZM7.95208 14.7708C8.50437 14.7708 8.95208 14.3231 8.95208 13.7708C8.95208 13.2185 8.50437 12.7708 7.95208 12.7708V14.7708ZM20.2052 24.0976C19.6813 23.923 19.115 24.2062 18.9403 24.7301C18.7657 25.254 19.0488 25.8204 19.5728 25.995L20.2052 24.0976ZM24.8581 26.7027L24.5419 27.6514L24.8581 26.7027ZM26.7028 24.858L27.6515 24.5418L26.7028 24.858ZM25.9951 19.5727C25.8205 19.0487 25.2541 18.7656 24.7302 18.9402C24.2062 19.1149 23.9231 19.6812 24.0977 20.2051L25.9951 19.5727ZM19.9076 25.6579C20.3515 25.3292 20.4449 24.703 20.1162 24.2591C19.7875 23.8153 19.1613 23.7219 18.7174 24.0506L19.9076 25.6579ZM24.032 18.7434C23.7176 19.1975 23.8309 19.8204 24.285 20.1348C24.7391 20.4491 25.3621 20.3358 25.6764 19.8818L24.032 18.7434ZM19.6042 14.7708H19.6188V12.7708H19.6042V14.7708ZM13.7708 14.7708H13.7854V12.7708H13.7708V14.7708ZM7.9375 14.7708H7.95208V12.7708H7.9375V14.7708ZM19.5728 25.995L24.5419 27.6514L25.1744 25.754L20.2052 24.0976L19.5728 25.995ZM27.6515 24.5418L25.9951 19.5727L24.0977 20.2051L25.7541 25.1743L27.6515 24.5418ZM24.5419 27.6514C26.4637 28.292 28.2921 26.4636 27.6515 24.5418L25.7541 25.1743C25.8736 25.5326 25.5327 25.8735 25.1744 25.754L24.5419 27.6514ZM13.7708 25.1667C7.47709 25.1667 2.375 20.0646 2.375 13.7708H0.375C0.375 21.1691 6.37252 27.1667 13.7708 27.1667V25.1667ZM2.375 13.7708C2.375 7.47709 7.47709 2.375 13.7708 2.375V0.375C6.37252 0.375 0.375 6.37252 0.375 13.7708H2.375ZM13.7708 2.375C20.0646 2.375 25.1667 7.47709 25.1667 13.7708H27.1667C27.1667 6.37252 21.1691 0.375 13.7708 0.375V2.375ZM19.3125 24.8542C18.7174 24.0506 18.7178 24.0503 18.7182 24.05C18.7183 24.0499 18.7187 24.0496 18.719 24.0495C18.7194 24.0491 18.7199 24.0488 18.7203 24.0485C18.7212 24.0478 18.7219 24.0473 18.7226 24.0468C18.7239 24.0459 18.7247 24.0452 18.7252 24.0449C18.7261 24.0442 18.7254 24.0448 18.723 24.0465C18.7181 24.0498 18.7066 24.0577 18.6883 24.0694C18.6517 24.093 18.5881 24.1321 18.497 24.1819C18.315 24.2814 18.023 24.4237 17.6174 24.5692C16.8081 24.8597 15.5368 25.1667 13.7708 25.1667V27.1667C15.7742 27.1667 17.2737 26.8175 18.293 26.4517C18.8016 26.2691 19.1883 26.0833 19.4564 25.9367C19.5904 25.8635 19.6947 25.8001 19.7698 25.7518C19.8073 25.7277 19.8375 25.7074 19.8605 25.6915C19.8719 25.6835 19.8816 25.6767 19.8895 25.6711C19.8934 25.6683 19.8969 25.6658 19.8999 25.6636C19.9014 25.6625 19.9028 25.6614 19.9041 25.6605C19.9048 25.66 19.9054 25.6596 19.906 25.6591C19.9063 25.6589 19.9067 25.6586 19.9068 25.6585C19.9072 25.6582 19.9076 25.6579 19.3125 24.8542ZM25.1667 13.7708C25.1667 15.4715 24.8609 16.7445 24.5674 17.5761C24.4205 17.9926 24.2761 18.2996 24.1736 18.4951C24.1224 18.5928 24.0817 18.6625 24.0564 18.7041C24.0438 18.7248 24.035 18.7385 24.0307 18.7451C24.0286 18.7484 24.0276 18.7499 24.0278 18.7496C24.0278 18.7494 24.0282 18.7489 24.0289 18.7478C24.0293 18.7473 24.0297 18.7467 24.0302 18.7459C24.0305 18.7456 24.0308 18.7452 24.0311 18.7447C24.0312 18.7445 24.0314 18.7442 24.0315 18.7441C24.0317 18.7437 24.032 18.7434 24.8542 19.3126C25.6764 19.8818 25.6767 19.8814 25.6769 19.881C25.677 19.8809 25.6773 19.8805 25.6775 19.8802C25.6778 19.8797 25.6782 19.8791 25.6787 19.8785C25.6795 19.8773 25.6804 19.876 25.6814 19.8745C25.6833 19.8717 25.6856 19.8683 25.6882 19.8645C25.6933 19.8568 25.6997 19.8472 25.7072 19.8357C25.7221 19.8127 25.7416 19.7821 25.7648 19.7439C25.8113 19.6675 25.8731 19.5607 25.945 19.4237C26.0886 19.1497 26.2723 18.7549 26.4534 18.2417C26.8162 17.2138 27.1667 15.716 27.1667 13.7708H25.1667Z" fill="white"/>
</svg>
