<svg width="24" height="18" viewBox="0 0 24 18" fill="none" xmlns="http://www.w3.org/2000/svg">
<path d="M8.38851 17C6.43315 17 4.76439 15.5863 4.44293 13.6576L3 5L6.75598 8.07308C7.68373 8.83214 9.06623 8.61021 9.70978 7.59891L12 4L14.2902 7.59891C14.9338 8.61021 16.3163 8.83214 17.244 8.07308L21 5L19.5571 13.6576C19.2356 15.5863 17.5668 17 15.6115 17H8.38851Z" fill="#EBB41C"/>
<path d="M6.75598 8.07308L6.28106 8.65355L6.75598 8.07308ZM9.70978 7.59891L9.07704 7.19626L9.70978 7.59891ZM17.244 8.07308L17.7189 8.65355L17.244 8.07308ZM14.2902 7.59891L13.6575 8.00157L14.2902 7.59891ZM19.5571 13.6576L20.2969 13.7809L19.5571 13.6576ZM4.44293 13.6576L3.70314 13.7809L4.44293 13.6576ZM2.2602 5.1233L3.70314 13.7809L5.18273 13.5343L3.7398 4.8767L2.2602 5.1233ZM8.38851 17.75H15.6115V16.25H8.38851V17.75ZM20.2969 13.7809L21.7398 5.1233L20.2602 4.8767L18.8173 13.5343L20.2969 13.7809ZM20.5251 4.41953L16.7691 7.49261L17.7189 8.65355L21.4749 5.58047L20.5251 4.41953ZM2.52507 5.58047L6.28106 8.65355L7.23091 7.49261L3.47493 4.41953L2.52507 5.58047ZM10.3425 8.00157L12.6327 4.40266L11.3673 3.59734L9.07704 7.19626L10.3425 8.00157ZM11.3673 4.40266L13.6575 8.00157L14.923 7.19626L12.6327 3.59734L11.3673 4.40266ZM6.28106 8.65355C7.5567 9.69726 9.45764 9.39211 10.3425 8.00157L9.07704 7.19626C8.67481 7.82832 7.81075 7.96702 7.23091 7.49261L6.28106 8.65355ZM16.7691 7.49261C16.1892 7.96702 15.3252 7.82832 14.923 7.19626L13.6575 8.00157C14.5424 9.3921 16.4433 9.69726 17.7189 8.65355L16.7691 7.49261ZM15.6115 17.75C17.9335 17.75 19.9151 16.0713 20.2969 13.7809L18.8173 13.5343C18.5561 15.1014 17.2002 16.25 15.6115 16.25V17.75ZM3.70314 13.7809C4.08487 16.0713 6.06652 17.75 8.38851 17.75V16.25C6.79978 16.25 5.44391 15.1014 5.18273 13.5343L3.70314 13.7809ZM21.75 3.5C21.75 3.91421 21.4142 4.25 21 4.25V5.75C22.2426 5.75 23.25 4.74264 23.25 3.5H21.75ZM21 4.25C20.5858 4.25 20.25 3.91421 20.25 3.5H18.75C18.75 4.74264 19.7574 5.75 21 5.75V4.25ZM20.25 3.5C20.25 3.08579 20.5858 2.75 21 2.75V1.25C19.7574 1.25 18.75 2.25736 18.75 3.5H20.25ZM21 2.75C21.4142 2.75 21.75 3.08579 21.75 3.5H23.25C23.25 2.25736 22.2426 1.25 21 1.25V2.75ZM12.75 2.5C12.75 2.91421 12.4142 3.25 12 3.25V4.75C13.2426 4.75 14.25 3.74264 14.25 2.5H12.75ZM12 3.25C11.5858 3.25 11.25 2.91421 11.25 2.5H9.75C9.75 3.74264 10.7574 4.75 12 4.75V3.25ZM11.25 2.5C11.25 2.08579 11.5858 1.75 12 1.75V0.25C10.7574 0.25 9.75 1.25736 9.75 2.5H11.25ZM12 1.75C12.4142 1.75 12.75 2.08579 12.75 2.5H14.25C14.25 1.25736 13.2426 0.25 12 0.25V1.75ZM3.75 3.5C3.75 3.91421 3.41421 4.25 3 4.25V5.75C4.24264 5.75 5.25 4.74264 5.25 3.5H3.75ZM3 4.25C2.58579 4.25 2.25 3.91421 2.25 3.5H0.75C0.75 4.74264 1.75736 5.75 3 5.75V4.25ZM2.25 3.5C2.25 3.08579 2.58579 2.75 3 2.75V1.25C1.75736 1.25 0.75 2.25736 0.75 3.5H2.25ZM3 2.75C3.41421 2.75 3.75 3.08579 3.75 3.5H5.25C5.25 2.25736 4.24264 1.25 3 1.25V2.75Z" fill="#EBB41C"/>
</svg>
