<svg width="18" height="20" viewBox="0 0 18 20" fill="none" xmlns="http://www.w3.org/2000/svg">
<path d="M15.2222 18.2778L15.7326 18.8274L15.2222 18.2778ZM2.77778 18.2778L2.26744 18.8274H2.26744L2.77778 18.2778ZM15.5 7.88507L15.4593 7.13618L15.5 7.88507ZM1.88889 5.16673L2.02711 5.90388L1.88889 5.16673ZM16.1111 5.16673L16.2493 4.42957L16.2493 4.42957L16.1111 5.16673ZM16.1111 7.83339L16.2493 8.57055H16.2493L16.1111 7.83339ZM1.88889 7.83339L1.75067 8.57055H1.75067L1.88889 7.83339ZM8.86591 4.85003L8.14147 4.65588C8.08998 4.84801 8.11692 5.05273 8.21637 5.225C8.31582 5.39727 8.47962 5.52298 8.67176 5.57447L8.86591 4.85003ZM14.0621 1.85003L14.7116 1.47503L14.0621 1.85003ZM9.06232 4.85003L9.25647 5.57447C9.4486 5.52298 9.61241 5.39727 9.71185 5.225C9.8113 5.05273 9.83824 4.84801 9.78675 4.65588L9.06232 4.85003ZM3.86617 1.85003L3.21665 1.47503L3.86617 1.85003ZM15.25 12.5001C15.25 13.9141 15.1546 15.2331 15.0142 16.2325C14.9438 16.734 14.8641 17.14 14.7844 17.4309C14.7444 17.5771 14.7084 17.6792 14.6802 17.7437C14.6441 17.8261 14.6454 17.79 14.7119 17.7283L15.7326 18.8274C15.8963 18.6754 15.9948 18.4813 16.0544 18.3451C16.1219 18.1909 16.1801 18.0137 16.2312 17.827C16.3338 17.4522 16.4243 16.9779 16.4997 16.4412C16.6509 15.3643 16.75 13.975 16.75 12.5001H15.25ZM14.7119 17.7283C14.7743 17.6703 14.8034 17.6741 14.706 17.7109C14.6292 17.7398 14.5127 17.775 14.3511 17.8131C14.0296 17.889 13.5856 17.964 13.0418 18.0298C11.9573 18.1612 10.5293 18.2501 9 18.2501V19.7501C10.5818 19.7501 12.0705 19.6584 13.2221 19.5189C13.7964 19.4494 14.3002 19.3663 14.6958 19.273C14.8927 19.2265 15.0769 19.1742 15.2356 19.1142C15.3737 19.0622 15.5729 18.9757 15.7326 18.8274L14.7119 17.7283ZM9 18.2501C7.47066 18.2501 6.0427 18.1612 4.95824 18.0298C4.41442 17.964 3.97038 17.889 3.64888 17.8131C3.48734 17.775 3.37075 17.7398 3.29402 17.7109C3.19658 17.6741 3.22567 17.6703 3.28812 17.7283L2.26744 18.8274C2.42711 18.9757 2.62634 19.0622 2.76436 19.1142C2.92308 19.1742 3.10728 19.2265 3.30424 19.273C3.69976 19.3663 4.20363 19.4494 4.77788 19.5189C5.92952 19.6584 7.41823 19.7501 9 19.7501V18.2501ZM3.28812 17.7283C3.35461 17.79 3.35586 17.8261 3.31977 17.7437C3.29157 17.6792 3.25559 17.5771 3.21556 17.4309C3.1359 17.14 3.0562 16.734 2.98576 16.2325C2.84537 15.2331 2.75 13.9141 2.75 12.5001H1.25C1.25 13.975 1.34907 15.3643 1.50035 16.4412C1.57574 16.9779 1.66618 17.4522 1.76881 17.827C1.81993 18.0137 1.87813 18.1909 1.94564 18.3451C2.00525 18.4813 2.10373 18.6754 2.26744 18.8274L3.28812 17.7283ZM16.75 12.5001C16.75 11.0125 16.6213 9.8195 16.4908 8.9924C16.4256 8.5788 16.3599 8.25645 16.3096 8.03424C16.2844 7.92313 16.2631 7.83702 16.2476 7.77702C16.2398 7.74701 16.2335 7.72354 16.2289 7.70672C16.2266 7.69832 16.2247 7.69157 16.2233 7.68651C16.2226 7.68398 16.222 7.68187 16.2215 7.68019C16.2212 7.67934 16.221 7.67861 16.2208 7.67797C16.2207 7.67766 16.2207 7.67737 16.2206 7.67711C16.2206 7.67698 16.2205 7.6768 16.2205 7.67673C16.2204 7.67656 16.2204 7.6764 15.5 7.88507C14.7796 8.09374 14.7796 8.09359 14.7795 8.09345C14.7795 8.09341 14.7795 8.09327 14.7795 8.09319C14.7794 8.09304 14.7794 8.0929 14.7793 8.0928C14.7793 8.09259 14.7793 8.09248 14.7792 8.09248C14.7792 8.09247 14.7794 8.09288 14.7796 8.09371C14.7801 8.09536 14.781 8.09866 14.7823 8.1036C14.7851 8.11348 14.7895 8.12991 14.7954 8.15275C14.8072 8.19843 14.8249 8.26974 14.8467 8.36559C14.8901 8.5573 14.9494 8.84704 15.0092 9.22607C15.1287 9.98425 15.25 11.0988 15.25 12.5001H16.75ZM2.75 12.5001C2.75 11.0988 2.87128 9.98425 2.99084 9.22607C3.05062 8.84704 3.10993 8.5573 3.15335 8.36559C3.17506 8.26974 3.19279 8.19843 3.20461 8.15275C3.21051 8.12991 3.21495 8.11348 3.21766 8.1036C3.21901 8.09866 3.21994 8.09536 3.2204 8.09371C3.22063 8.09288 3.22075 8.09247 3.22075 8.09248C3.22075 8.09248 3.22072 8.09259 3.22066 8.0928C3.22063 8.0929 3.22059 8.09304 3.22054 8.09319C3.22052 8.09327 3.22048 8.09341 3.22047 8.09345C3.22043 8.09359 3.22039 8.09374 2.5 7.88507C1.77961 7.6764 1.77957 7.67656 1.77952 7.67673C1.7795 7.6768 1.77945 7.67698 1.77941 7.67711C1.77933 7.67737 1.77925 7.67766 1.77916 7.67797C1.77898 7.67861 1.77877 7.67934 1.77852 7.68019C1.77804 7.68187 1.77744 7.68398 1.77673 7.68651C1.7753 7.69157 1.77342 7.69832 1.77111 7.70672C1.7665 7.72354 1.76019 7.74701 1.75243 7.77702C1.7369 7.83702 1.71557 7.92313 1.6904 8.03424C1.64007 8.25645 1.57438 8.5788 1.50916 8.9924C1.37872 9.8195 1.25 11.0125 1.25 12.5001H2.75ZM2.02711 5.90388C2.02678 5.90394 2.04276 5.90118 2.08341 5.89679C2.12119 5.89271 2.17083 5.88823 2.23321 5.88347C2.35794 5.87397 2.52205 5.86427 2.72321 5.85468C3.12495 5.83553 3.66029 5.81747 4.29611 5.80192C5.567 5.77084 7.22749 5.75006 9 5.75006V4.25006C7.21695 4.25006 5.54412 4.27095 4.25944 4.30237C3.61748 4.31807 3.0695 4.33647 2.65179 4.35638C2.25999 4.37506 1.92378 4.39712 1.75067 4.42957L2.02711 5.90388ZM9 5.75006C10.7725 5.75006 12.433 5.77084 13.7039 5.80192C14.3397 5.81747 14.8751 5.83553 15.2768 5.85468C15.4779 5.86427 15.6421 5.87397 15.7668 5.88347C15.8292 5.88823 15.8788 5.89271 15.9166 5.89679C15.9572 5.90118 15.9732 5.90394 15.9729 5.90388L16.2493 4.42957C16.0762 4.39712 15.74 4.37506 15.3482 4.35638C14.9305 4.33647 14.3825 4.31807 13.7406 4.30237C12.4559 4.27095 10.7831 4.25006 9 4.25006V5.75006ZM15.9729 5.90388C15.9414 5.89798 16.0117 5.9066 16.1065 6.04294C16.1918 6.16556 16.25 6.33017 16.25 6.50006H17.75C17.75 6.00328 17.5859 5.54289 17.3379 5.18635C17.0994 4.84352 16.7253 4.51881 16.2493 4.42957L15.9729 5.90388ZM16.25 6.50006C16.25 6.66995 16.1918 6.83456 16.1065 6.95718C16.0117 7.09352 15.9414 7.10214 15.9729 7.09624L16.2493 8.57055C16.7253 8.48131 17.0994 8.1566 17.3379 7.81378C17.5859 7.45723 17.75 6.99684 17.75 6.50006H16.25ZM2.02711 7.09624C2.05859 7.10214 1.9883 7.09352 1.89346 6.95718C1.80816 6.83456 1.75 6.66995 1.75 6.50006H0.25C0.25 6.99684 0.414067 7.45723 0.662099 7.81378C0.900584 8.1566 1.27474 8.48131 1.75067 8.57055L2.02711 7.09624ZM1.75 6.50006C1.75 6.33017 1.80816 6.16556 1.89346 6.04294C1.9883 5.9066 2.05859 5.89798 2.02711 5.90388L1.75067 4.42957C1.27474 4.51881 0.900584 4.84352 0.662099 5.18635C0.414067 5.54289 0.25 6.00328 0.25 6.50006H1.75ZM15.9729 7.09624C15.974 7.09602 15.9628 7.09805 15.9333 7.10147C15.9057 7.10466 15.8692 7.10827 15.8229 7.11216C15.7304 7.11996 15.6089 7.12804 15.4593 7.13618L15.5407 8.63397C15.8351 8.61796 16.0982 8.59888 16.2493 8.57055L15.9729 7.09624ZM15.4593 7.13618C14.3221 7.198 11.8063 7.25006 9 7.25006V8.75006C11.8133 8.75006 14.3619 8.69805 15.5407 8.63397L15.4593 7.13618ZM9 7.25006C6.19374 7.25006 3.67786 7.198 2.54072 7.13618L2.45928 8.63397C3.6381 8.69805 6.18669 8.75006 9 8.75006V7.25006ZM2.54072 7.13618C2.39106 7.12804 2.26963 7.11996 2.17706 7.11216C2.13082 7.10827 2.09434 7.10466 2.06673 7.10147C2.03721 7.09805 2.02596 7.09602 2.02711 7.09624L1.75067 8.57055C1.90176 8.59888 2.16488 8.61796 2.45928 8.63397L2.54072 7.13618ZM9.59034 5.04418C9.81892 4.1913 10.6426 2.92573 11.5705 2.19735C12.0346 1.833 12.4228 1.68425 12.6937 1.68457C12.8907 1.6848 13.1444 1.76054 13.4125 2.22503L14.7116 1.47503C14.2297 0.640453 13.5275 0.185553 12.6954 0.184572C11.9372 0.183678 11.223 0.563138 10.6443 1.01745C9.4864 1.92637 8.46201 3.45986 8.14147 4.65588L9.59034 5.04418ZM13.4125 2.22503C13.6807 2.68956 13.6195 2.94718 13.5212 3.11794C13.386 3.3527 13.0631 3.61449 12.5156 3.83428C11.4208 4.27369 9.913 4.35419 9.06006 4.1256L8.67176 5.57447C9.86792 5.89504 11.7082 5.77466 13.0743 5.22633C13.7571 4.95226 14.4428 4.52347 14.8211 3.86634C15.2363 3.14521 15.1934 2.30962 14.7116 1.47503L13.4125 2.22503ZM9.78675 4.65588C9.46621 3.45986 8.44182 1.92637 7.28393 1.01745C6.70518 0.563138 5.99101 0.183678 5.23278 0.184572C4.40069 0.185553 3.69849 0.640453 3.21665 1.47503L4.51569 2.22503C4.78386 1.76054 5.03754 1.6848 5.23455 1.68457C5.50543 1.68425 5.89359 1.833 6.35773 2.19735C7.28564 2.92573 8.10931 4.1913 8.33788 5.04418L9.78675 4.65588ZM3.21665 1.47503C2.7348 2.30962 2.69191 3.14521 3.10708 3.86634C3.48539 4.52347 4.17109 4.95226 4.85392 5.22633C6.22001 5.77466 8.0603 5.89504 9.25647 5.57447L8.86817 4.1256C8.01522 4.35419 6.50739 4.27369 5.41266 3.83428C4.86508 3.61449 4.54219 3.3527 4.40704 3.11794C4.30873 2.94718 4.24749 2.68956 4.51569 2.22503L3.21665 1.47503Z" fill="white"/>
</svg>
