<svg width="18" height="16" viewBox="0 0 18 16" fill="none" xmlns="http://www.w3.org/2000/svg">
<path d="M1 14.2498C0.585786 14.2498 0.25 14.5856 0.25 14.9998C0.25 15.4141 0.585786 15.7498 1 15.7498V14.2498ZM17 15.7498C17.4142 15.7498 17.75 15.4141 17.75 14.9998C17.75 14.5856 17.4142 14.2498 17 14.2498V15.7498ZM8.29289 1.70696L8.82322 2.23729L8.29289 1.70696ZM9.70711 1.70696L9.17678 2.23729V2.23729L9.70711 1.70696ZM4.29289 4.29274L3.76256 4.82307L4.29289 4.29274ZM5.70711 4.29274L5.17678 3.76241L5.70711 4.29274ZM12.2929 4.29274L12.8232 3.76241L12.2929 4.29274ZM2.70711 2.70696L3.23744 2.17663L2.70711 2.70696ZM1 15.7498H17V14.2498H1V15.7498ZM0.25 3.41406V10.9998H1.75V3.41406H0.25ZM2 12.7498H16V11.2498H2V12.7498ZM17.75 10.9998V3.41406H16.25V10.9998H17.75ZM14.7626 2.17663L13.1768 3.76241L14.2374 4.82307L15.8232 3.23729L14.7626 2.17663ZM2.17678 3.23729L3.76256 4.82307L4.82322 3.76241L3.23744 2.17663L2.17678 3.23729ZM6.23744 4.82307L8.82322 2.23729L7.76256 1.17663L5.17678 3.76241L6.23744 4.82307ZM9.17678 2.23729L11.7626 4.82307L12.8232 3.76241L10.2374 1.17663L9.17678 2.23729ZM8.82322 2.23729C8.92085 2.13966 9.07914 2.13965 9.17678 2.23729L10.2374 1.17663C9.55402 0.493209 8.44598 0.493207 7.76256 1.17663L8.82322 2.23729ZM3.76256 4.82307C4.44598 5.50649 5.55402 5.50649 6.23744 4.82307L5.17678 3.76241C5.07914 3.86004 4.92085 3.86004 4.82322 3.76241L3.76256 4.82307ZM13.1768 3.76241C13.0791 3.86004 12.9209 3.86004 12.8232 3.76241L11.7626 4.82307C12.446 5.50649 13.554 5.50649 14.2374 4.82307L13.1768 3.76241ZM17.75 3.41406C17.75 1.85498 15.865 1.07419 14.7626 2.17663L15.8232 3.23729C15.9807 3.07979 16.25 3.19134 16.25 3.41406H17.75ZM16 12.7498C16.9665 12.7498 17.75 11.9663 17.75 10.9998H16.25C16.25 11.1379 16.1381 11.2498 16 11.2498V12.7498ZM0.25 10.9998C0.25 11.9663 1.0335 12.7498 2 12.7498V11.2498C1.86193 11.2498 1.75 11.1379 1.75 10.9998H0.25ZM1.75 3.41406C1.75 3.19134 2.01929 3.07979 2.17678 3.23729L3.23744 2.17663C2.135 1.07419 0.25 1.85498 0.25 3.41406H1.75Z" fill="#EBB41C"/>
</svg>
