<svg width="19" height="16" viewBox="0 0 19 16" fill="none" xmlns="http://www.w3.org/2000/svg">
<path d="M0.999455 13.3275L1.69581 13.606L1.69581 13.606L0.999455 13.3275ZM0.999456 2.61339L0.303098 2.89193L0.303098 2.89193L0.999456 2.61339ZM2.10292 1.34688L1.90144 2.0693L1.90144 2.0693L2.10292 1.34688ZM8.79913 3.72781L8.50369 4.41717L8.79913 3.72781ZM17.2844 7.97045L17.6703 8.61357C17.8962 8.47802 18.0344 8.23389 18.0344 7.97045C18.0344 7.707 17.8962 7.46287 17.6703 7.32733L17.2844 7.97045ZM8.79913 12.2131L8.50369 11.5237L8.79913 12.2131ZM2.10292 14.594L2.30441 15.3164L2.30441 15.3164L2.10292 14.594ZM1.69581 13.606L3.83863 8.24899L2.44592 7.6919L0.303097 13.049L1.69581 13.606ZM3.83863 7.6919L1.69581 2.33485L0.303098 2.89193L2.44592 8.24899L3.83863 7.6919ZM1.90144 2.0693C3.38456 2.48295 5.71578 3.22235 8.50369 4.41717L9.09457 3.03845C6.2355 1.81313 3.84008 1.05274 2.30441 0.624446L1.90144 2.0693ZM8.50369 4.41717C10.9556 5.46798 13.0581 6.5192 14.547 7.30746C15.2912 7.70144 15.8814 8.02934 16.2844 8.25811C16.486 8.37249 16.6407 8.46205 16.7444 8.52268C16.7963 8.55299 16.8354 8.57607 16.8613 8.59139C16.8742 8.59905 16.8838 8.60477 16.89 8.60849C16.8932 8.61035 16.8954 8.61171 16.8969 8.61256C16.8976 8.61298 16.8981 8.61328 16.8983 8.61345C16.8985 8.61353 16.8986 8.61358 16.8986 8.6136C16.8986 8.61361 16.8986 8.6136 16.8986 8.61361C16.8986 8.61359 16.8985 8.61357 17.2844 7.97045C17.6703 7.32733 17.6702 7.32729 17.6701 7.32724C17.6701 7.32721 17.67 7.32715 17.6699 7.3271C17.6697 7.32699 17.6695 7.32685 17.6692 7.32667C17.6686 7.32633 17.6678 7.32585 17.6668 7.32525C17.6648 7.32404 17.6619 7.32232 17.6582 7.3201C17.6507 7.31566 17.6399 7.30921 17.6257 7.30082C17.5974 7.28403 17.5557 7.25946 17.5013 7.22762C17.3923 7.16396 17.2321 7.07122 17.0248 6.95358C16.6103 6.71831 16.0073 6.3833 15.2488 5.98178C13.7326 5.17905 11.5924 4.10896 9.09457 3.03845L8.50369 4.41717ZM17.2844 7.97045C16.8985 7.32733 16.8986 7.3273 16.8986 7.32728C16.8986 7.32729 16.8986 7.32728 16.8986 7.32729C16.8986 7.32731 16.8985 7.32736 16.8983 7.32745C16.8981 7.32762 16.8976 7.32791 16.8969 7.32834C16.8954 7.32919 16.8932 7.33055 16.89 7.3324C16.8838 7.33612 16.8742 7.34184 16.8613 7.3495C16.8354 7.36482 16.7963 7.3879 16.7444 7.41821C16.6407 7.47884 16.486 7.56841 16.2844 7.68278C15.8814 7.91156 15.2912 8.23945 14.547 8.63343C13.0581 9.42169 10.9556 10.4729 8.50369 11.5237L9.09457 12.9024C11.5924 11.8319 13.7326 10.7618 15.2488 9.95911C16.0073 9.5576 16.6103 9.22258 17.0248 8.98731C17.2321 8.86967 17.3923 8.77694 17.5013 8.71327C17.5557 8.68143 17.5974 8.65686 17.6257 8.64007C17.6399 8.63168 17.6508 8.62523 17.6582 8.62079C17.6619 8.61857 17.6648 8.61685 17.6668 8.61565C17.6678 8.61504 17.6686 8.61457 17.6692 8.61422C17.6695 8.61405 17.6697 8.61391 17.6699 8.6138C17.67 8.61374 17.6701 8.61368 17.6701 8.61366C17.6702 8.61361 17.6703 8.61357 17.2844 7.97045ZM8.50369 11.5237C5.71578 12.7185 3.38456 13.4579 1.90144 13.8716L2.30441 15.3164C3.84008 14.8882 6.2355 14.1278 9.09457 12.9024L8.50369 11.5237ZM0.303098 13.049C-0.207157 14.3246 0.90167 15.7077 2.30441 15.3164L1.90144 13.8716C1.84831 13.8864 1.81359 13.8814 1.79163 13.8745C1.76697 13.8667 1.7422 13.8512 1.7211 13.8267C1.68138 13.7808 1.65582 13.706 1.69581 13.606L0.303098 13.049ZM1.69581 2.33485C1.65582 2.23486 1.68138 2.16009 1.7211 2.11415C1.7422 2.08974 1.76697 2.0742 1.79163 2.06644C1.81359 2.05952 1.84831 2.05449 1.90144 2.0693L2.30441 0.624446C0.901668 0.233224 -0.207155 1.6163 0.303098 2.89193L1.69581 2.33485ZM17.2844 7.22045L3.14228 7.22045L3.14228 8.72045L17.2844 8.72045L17.2844 7.22045Z" fill="white"/>
</svg>
