<svg width="18" height="20" viewBox="0 0 18 20" fill="none" xmlns="http://www.w3.org/2000/svg">
<path d="M7 0.25C6.58579 0.25 6.25 0.585786 6.25 1C6.25 1.41421 6.58579 1.75 7 1.75V0.25ZM11 1.75C11.4142 1.75 11.75 1.41421 11.75 1C11.75 0.585786 11.4142 0.25 11 0.25V1.75ZM9.75 7C9.75 6.58579 9.41421 6.25 9 6.25C8.58579 6.25 8.25 6.58579 8.25 7H9.75ZM9 11H8.25C8.25 11.1989 8.32902 11.3897 8.46967 11.5303L9 11ZM10.4697 13.5303C10.7626 13.8232 11.2374 13.8232 11.5303 13.5303C11.8232 13.2374 11.8232 12.7626 11.5303 12.4697L10.4697 13.5303ZM7 1.75H11V0.25H7V1.75ZM8.25 7V11H9.75V7H8.25ZM8.46967 11.5303L10.4697 13.5303L11.5303 12.4697L9.53033 10.4697L8.46967 11.5303ZM16.25 11C16.25 15.0041 13.0041 18.25 9 18.25V19.75C13.8325 19.75 17.75 15.8325 17.75 11H16.25ZM9 18.25C4.99594 18.25 1.75 15.0041 1.75 11H0.25C0.25 15.8325 4.16751 19.75 9 19.75V18.25ZM1.75 11C1.75 6.99594 4.99594 3.75 9 3.75V2.25C4.16751 2.25 0.25 6.16751 0.25 11H1.75ZM9 3.75C13.0041 3.75 16.25 6.99594 16.25 11H17.75C17.75 6.16751 13.8325 2.25 9 2.25V3.75Z" fill="white"/>
</svg>
