<svg width="20" height="19" viewBox="0 0 20 19" fill="none" xmlns="http://www.w3.org/2000/svg">
<path d="M6 17.25C5.58579 17.25 5.25 17.5858 5.25 18C5.25 18.4142 5.58579 18.75 6 18.75V17.25ZM14 18.75C14.4142 18.75 14.75 18.4142 14.75 18C14.75 17.5858 14.4142 17.25 14 17.25V18.75ZM9.25 18C9.25 18.4142 9.58579 18.75 10 18.75C10.4142 18.75 10.75 18.4142 10.75 18H9.25ZM15 7.25C14.5858 7.25 14.25 7.58579 14.25 8C14.25 8.41421 14.5858 8.75 15 8.75V7.25ZM5 8.75C5.41421 8.75 5.75 8.41421 5.75 8C5.75 7.58579 5.41421 7.25 5 7.25V8.75ZM6 18.75H14V17.25H6V18.75ZM10.75 18V14H9.25V18H10.75ZM7 1.75H13V0.25H7V1.75ZM14.25 3V9H15.75V3H14.25ZM5.75 9V3H4.25V9H5.75ZM10 13.25C7.65279 13.25 5.75 11.3472 5.75 9H4.25C4.25 12.1756 6.82436 14.75 10 14.75V13.25ZM14.25 9C14.25 11.3472 12.3472 13.25 10 13.25V14.75C13.1756 14.75 15.75 12.1756 15.75 9H14.25ZM13 1.75C13.6904 1.75 14.25 2.30964 14.25 3H15.75C15.75 1.48122 14.5188 0.25 13 0.25V1.75ZM7 0.25C5.48122 0.25 4.25 1.48122 4.25 3H5.75C5.75 2.30964 6.30964 1.75 7 1.75V0.25ZM18.25 5.5C18.25 6.4665 17.4665 7.25 16.5 7.25V8.75C18.2949 8.75 19.75 7.29493 19.75 5.5H18.25ZM16.5 3.75C17.4665 3.75 18.25 4.5335 18.25 5.5H19.75C19.75 3.70507 18.2949 2.25 16.5 2.25V3.75ZM16.5 2.25H15V3.75H16.5V2.25ZM16.5 7.25H15V8.75H16.5V7.25ZM1.75 5.5C1.75 4.5335 2.5335 3.75 3.5 3.75V2.25C1.70507 2.25 0.25 3.70507 0.25 5.5H1.75ZM3.5 7.25C2.5335 7.25 1.75 6.4665 1.75 5.5H0.25C0.25 7.29493 1.70507 8.75 3.5 8.75V7.25ZM3.5 8.75H5V7.25H3.5V8.75ZM3.5 3.75H5V2.25H3.5V3.75Z" fill="#EBB41C"/>
</svg>
